<svg width="28" height="21" viewBox="0 0 28 21" fill="none" xmlns="http://www.w3.org/2000/svg">
<path d="M27.4861 2.49457C26.5062 2.90463 25.4398 3.19975 24.3413 3.31469C25.4817 2.65746 26.3358 1.61914 26.7431 0.394544C25.673 1.01209 24.5007 1.44513 23.2781 1.67444C22.7672 1.14455 22.1492 0.722408 21.4627 0.434331C20.7762 0.146254 20.0359 -0.00158988 19.288 1.28934e-05C16.2617 1.28934e-05 13.8279 2.37963 13.8279 5.29978C13.8279 5.70984 13.8791 6.1199 13.9624 6.51443C9.43101 6.28455 5.38959 4.18453 2.70278 0.969254C2.21322 1.78042 1.95667 2.70403 1.95983 3.64399C1.95983 5.48306 2.92375 7.10468 4.39364 8.05839C3.52741 8.02529 2.68146 7.79432 1.9246 7.38427V7.4495C1.9246 10.0248 3.8012 12.159 6.30227 12.6499C5.83267 12.7682 5.34958 12.8287 4.8644 12.83C4.50893 12.83 4.17268 12.7959 3.83322 12.7493C4.52494 14.8493 6.53925 16.3746 8.93784 16.4243C7.06123 17.8502 4.71068 18.689 2.15837 18.689C1.70043 18.689 1.27772 18.6734 0.838989 18.6237C3.26 20.1304 6.13254 21.0002 9.22605 21.0002C19.2687 21.0002 24.7641 12.9294 24.7641 5.92419C24.7641 5.69431 24.7641 5.46442 24.748 5.23454C25.8112 4.47965 26.7431 3.54458 27.4861 2.49457Z" fill="white"/>
</svg>
