<svg width="36" height="20" viewBox="0 0 36 20" fill="none" xmlns="http://www.w3.org/2000/svg">
<path fill-rule="evenodd" clip-rule="evenodd" d="M31.2379 14.0198C31.2379 14.0198 34.0553 16.8133 34.7522 18.1059C34.7658 18.1245 34.7764 18.1452 34.7836 18.1671C35.0676 18.6446 35.1373 19.019 34.9979 19.2953C34.7627 19.7519 33.9664 19.981 33.6964 20.0002H28.7168C28.3701 20.0002 27.6488 19.9093 26.7706 19.3006C26.0998 18.8301 25.4325 18.0552 24.7861 17.2978C23.8209 16.1731 22.9863 15.197 22.1413 15.197C22.0346 15.1968 21.9285 15.2145 21.8277 15.2495C21.1882 15.4524 20.3763 16.3672 20.3763 18.8038C20.3763 19.5665 19.7769 20.0002 19.357 20.0002H17.0763C16.2993 20.0002 12.2536 19.7274 8.66615 15.9299C4.27026 11.2806 0.322159 1.95407 0.283828 1.87186C0.0381602 1.26839 0.553888 0.939548 1.11143 0.939548H6.13978C6.81406 0.939548 7.03359 1.34885 7.18691 1.71618C7.36463 2.13773 8.02323 3.82393 9.10347 5.71828C10.8528 8.80031 11.9278 10.0545 12.7867 10.0545C12.9481 10.0549 13.1068 10.0127 13.2467 9.93203C14.3688 9.31282 14.1597 5.28973 14.1074 4.46063C14.1074 4.2997 14.1057 2.66423 13.5307 1.8736C13.1195 1.30687 12.4191 1.08648 11.9957 1.00602C12.109 0.841594 12.3494 0.589714 12.6578 0.441035C13.4262 0.0562173 14.8148 0.000244141 16.193 0.000244141H16.9579C18.4528 0.0212342 18.8396 0.117438 19.3832 0.255623C20.4774 0.517998 20.4983 1.22991 20.4024 3.65426C20.3746 4.34693 20.3449 5.12706 20.3449 6.04537C20.3449 6.24128 20.3362 6.45993 20.3362 6.68207C20.3031 7.92573 20.2596 9.32681 21.1342 9.90229C21.2477 9.97324 21.3786 10.0108 21.5123 10.0107C21.8155 10.0107 22.7232 10.0107 25.1851 5.769C26.2654 3.89564 27.1017 1.68644 27.1592 1.52027C27.208 1.42757 27.3543 1.16694 27.532 1.06199C27.6584 0.994463 27.8001 0.960731 27.9432 0.964037H33.8584C34.5031 0.964037 34.9404 1.06199 35.0258 1.30687C35.1686 1.70394 34.9979 2.91611 32.2973 6.58237C31.8425 7.19283 31.4435 7.72108 31.0933 8.18286C28.6454 11.4083 28.6454 11.571 31.2379 14.0198Z" fill="white"/>
</svg>
